<?xml version="1.0" encoding="UTF-8"?>
<svg x="0" y="0" width="50" height="50" style="overflow: visible;">
  <svg xmlns="http://www.w3.org/2000/svg" viewBox="0 0 468 468">
    <path d="M117 0H0v468l117-156 54.76-73L117 181.35l-43.92-46.23-41.39 41.39v218.37a2.44 2.44 0 0 1-4.88 0V29.25a2.44 2.44 0 0 1 4.88 0v140.37l69-69L117 84.3l56.78-56.77a2.43 2.43 0 0 1 3.44 3.47L117 91.2l-12.9 12.9-27.57 27.57 40.47 42.6L174.72 235l25.85-34.46L351 0z" fill="#f9d611" opacity=".7"></path>
    <path d="M0 0v468h117V181.35l-43.92-46.23-41.39 41.39v218.37a2.44 2.44 0 0 1-4.88 0V29.25a2.44 2.44 0 0 1 4.88 0v140.37l69-69L117 84.3V0z" fill="#fd2965" opacity=".7"></path>
    <path fill="#fd2965" opacity=".7" d="M76.53 131.67l40.47 42.6V91.2l-12.9 12.9-27.57 27.57z"></path>
    <path d="M200.57 200.57L117 117l-12.9-12.9-27.57 27.57 40.47 42.6L174.72 235l178 187.42a2.44 2.44 0 0 1-3.54 3.35L171.76 239 117 181.35l-43.92-46.23-41.39 41.39v218.37a2.44 2.44 0 0 1-4.88 0V29.25a2.43 2.43 0 0 1 .72-1.72L0 0v468h468z" fill="#fa991a" opacity=".7"></path>
    <path fill="#fa991a" opacity=".7" d="M31.69 31.69v137.93l68.96-68.97-68.96-68.96z"></path>
  </svg>
</svg>
