<?xml version="1.0" standalone="no"?>
<!DOCTYPE svg PUBLIC "-//W3C//DTD SVG 20010904//EN"
 "http://www.w3.org/TR/2001/REC-SVG-20010904/DTD/svg10.dtd">
<svg version="1.0" xmlns="http://www.w3.org/2000/svg"
 width="128.000000pt" height="128.000000pt" viewBox="0 0 128.000000 128.000000"
 preserveAspectRatio="xMidYMid meet">
<metadata>
Created by potrace 1.14, written by Peter Selinger 2001-2017
</metadata>
<g transform="translate(0.000000,128.000000) scale(0.100000,-0.100000)"
fill="#000000" stroke="none">
<path d="M421 1244 c-31 -16 -64 -43 -81 -66 -33 -45 -55 -125 -45 -166 l6
-30 -47 3 c-160 10 -282 -148 -231 -299 14 -41 14 -51 1 -87 -7 -23 -14 -59
-14 -81 0 -53 44 -142 85 -174 46 -35 121 -56 168 -48 l38 6 -6 -34 c-8 -43 9
-112 41 -160 50 -78 167 -116 259 -85 40 14 52 14 78 4 59 -24 123 -21 183 8
86 42 135 125 129 219 l-3 46 33 -6 c41 -7 110 11 157 42 78 50 116 167 85
259 -14 40 -14 52 -4 78 37 91 5 210 -72 265 -48 35 -127 57 -171 47 -30 -7
-30 -6 -25 26 15 82 -41 191 -117 231 -51 27 -174 32 -201 9 -14 -11 -24 -11
-64 3 -68 23 -121 20 -182 -10z"/>
</g>
</svg>
